<svg width="27" height="27" viewBox="0 0 27 27" fill="none" xmlns="http://www.w3.org/2000/svg">
<g clip-path="url(#clip0_15_464)">
<path d="M25.3125 2.52849L18.5566 2.52852V0.846924C18.5566 0.380752 18.179 0.00317383 17.7128 0.00317383C17.2467 0.00317383 16.8691 0.380752 16.8691 0.846924V2.5281H10.1191V0.846924C10.1191 0.380752 9.74152 0.00317383 9.27534 0.00317383C8.80917 0.00317383 8.43159 0.380752 8.43159 0.846924V2.5281H1.6875C0.755578 2.5281 0 3.28367 0 4.2156V25.3093C0 26.2412 0.755578 26.9968 1.6875 26.9968H25.3125C26.2444 26.9968 27 26.2412 27 25.3093V4.2156C27 3.28407 26.2444 2.52849 25.3125 2.52849ZM25.3125 25.3093H1.6875V4.2156H8.43159V5.06567C8.43159 5.53182 8.80917 5.90942 9.27534 5.90942C9.74152 5.90942 10.1191 5.53182 10.1191 5.06567V4.21602H16.8691V5.0661C16.8691 5.53227 17.2467 5.90985 17.7128 5.90985C18.179 5.90985 18.5566 5.53227 18.5566 5.0661V4.21602H25.3125V25.3093ZM19.4062 13.4972H21.0938C21.5595 13.4972 21.9375 13.1192 21.9375 12.6535V10.966C21.9375 10.5002 21.5595 10.1222 21.0938 10.1222H19.4062C18.9405 10.1222 18.5625 10.5002 18.5625 10.966V12.6535C18.5625 13.1192 18.9405 13.4972 19.4062 13.4972ZM19.4062 20.2468H21.0938C21.5595 20.2468 21.9375 19.8692 21.9375 19.4031V17.7156C21.9375 17.2498 21.5595 16.8718 21.0938 16.8718H19.4062C18.9405 16.8718 18.5625 17.2498 18.5625 17.7156V19.4031C18.5625 19.8697 18.9405 20.2468 19.4062 20.2468ZM14.3438 16.8718H12.6562C12.1905 16.8718 11.8125 17.2498 11.8125 17.7156V19.4031C11.8125 19.8692 12.1905 20.2468 12.6562 20.2468H14.3438C14.8095 20.2468 15.1875 19.8692 15.1875 19.4031V17.7156C15.1875 17.2502 14.8095 16.8718 14.3438 16.8718ZM14.3438 10.1222H12.6562C12.1905 10.1222 11.8125 10.5002 11.8125 10.966V12.6535C11.8125 13.1192 12.1905 13.4972 12.6562 13.4972H14.3438C14.8095 13.4972 15.1875 13.1192 15.1875 12.6535V10.966C15.1875 10.4998 14.8095 10.1222 14.3438 10.1222ZM7.59375 10.1222H5.90625C5.4405 10.1222 5.0625 10.5002 5.0625 10.966V12.6535C5.0625 13.1192 5.4405 13.4972 5.90625 13.4972H7.59375C8.0595 13.4972 8.4375 13.1192 8.4375 12.6535V10.966C8.4375 10.4998 8.0595 10.1222 7.59375 10.1222ZM7.59375 16.8718H5.90625C5.4405 16.8718 5.0625 17.2498 5.0625 17.7156V19.4031C5.0625 19.8692 5.4405 20.2468 5.90625 20.2468H7.59375C8.0595 20.2468 8.4375 19.8692 8.4375 19.4031V17.7156C8.4375 17.2502 8.0595 16.8718 7.59375 16.8718Z" fill="white"/>
</g>
<defs>
<clipPath id="clip0_15_464">
<rect width="27" height="27" fill="white"/>
</clipPath>
</defs>
</svg>
