<svg width="19" height="18" viewBox="0 0 19 18" fill="none" xmlns="http://www.w3.org/2000/svg">
<path d="M17.45 18C17.75 18 18 17.9 18.2 17.7C18.4 17.5 18.5 17.25 18.5 16.95V12.9C18.5 12.6667 18.425 12.4623 18.275 12.287C18.125 12.1117 17.9333 11.9993 17.7 11.95L14.25 11.25C14.0167 11.2167 13.779 11.2377 13.537 11.313C13.295 11.3883 13.0993 11.5007 12.95 11.65L10.6 14C9.33333 13.2333 8.17067 12.325 7.112 11.275C6.05333 10.225 5.17433 9.1 4.475 7.9L6.9 5.45C7.05 5.3 7.14567 5.129 7.187 4.937C7.22833 4.745 7.23267 4.53267 7.2 4.3L6.55 0.8C6.51667 0.566667 6.40833 0.375 6.225 0.225C6.04167 0.0749999 5.83333 0 5.6 0H1.55C1.25 0 1 0.0999999 0.799999 0.3C0.599998 0.5 0.5 0.75 0.5 1.05C0.5 3.2 0.979334 5.296 1.938 7.338C2.89667 9.38 4.16333 11.1883 5.738 12.763C7.31267 14.3377 9.121 15.6043 11.163 16.563C13.205 17.5217 15.3007 18.0007 17.45 18ZM3.525 6C3.24167 5.35 3.025 4.69167 2.875 4.025C2.725 3.35833 2.60833 2.68333 2.525 2H4.75L5.175 4.35L3.525 6ZM12.475 14.95L14.15 13.275L16.5 13.75V15.95C15.8167 15.9 15.1373 15.7917 14.462 15.625C13.7867 15.4583 13.1243 15.2333 12.475 14.95Z" fill="white"/>
</svg>
