<svg width="16" height="16" viewBox="0 0 16 16" fill="none" xmlns="http://www.w3.org/2000/svg">
<path d="M7.89512 3.80664C10.0201 3.80664 11.7135 5.5332 11.7135 7.625C11.7135 9.75 10.0201 11.4434 7.89512 11.4434C5.80332 11.4434 4.07676 9.75 4.07676 7.625C4.07676 5.5332 5.80332 3.80664 7.89512 3.80664ZM7.89512 10.1152C9.25645 10.1152 10.3854 9.01953 10.3854 7.625C10.3854 6.26367 9.28965 5.16797 7.89512 5.16797C6.53379 5.16797 5.43809 6.26367 5.43809 7.625C5.43809 9.01953 6.53379 10.1152 7.89512 10.1152ZM3.04746 3.67383C3.04746 3.17578 3.4459 2.77734 3.94395 2.77734C4.44199 2.77734 4.84043 3.17578 4.84043 3.67383C4.84043 4.17188 4.44199 4.57031 3.94395 4.57031C3.4459 4.57031 3.04746 4.17188 3.04746 3.67383ZM0.524024 4.57031C0.59043 3.375 0.856055 2.3125 1.71934 1.44922C2.58262 0.585938 3.64512 0.320312 4.84043 0.253906C6.06895 0.1875 9.75449 0.1875 10.983 0.253906C12.1783 0.320312 13.2076 0.585938 14.1041 1.44922C14.9674 2.3125 15.233 3.375 15.2994 4.57031C15.3658 5.79883 15.3658 9.48438 15.2994 10.7129C15.233 11.9082 14.9674 12.9375 14.1041 13.834C13.2076 14.6973 12.1783 14.9629 10.983 15.0293C9.75449 15.0957 6.06895 15.0957 4.84043 15.0293C3.64512 14.9629 2.58262 14.6973 1.71934 13.834C0.856055 12.9375 0.59043 11.9082 0.524024 10.7129C0.457617 9.48438 0.457617 5.79883 0.524024 4.57031ZM2.11777 12.0078C2.3502 12.6719 2.88145 13.1699 3.5123 13.4355C4.5084 13.834 6.83262 13.7344 7.89512 13.7344C8.99082 13.7344 11.315 13.834 12.2779 13.4355C12.942 13.1699 13.44 12.6719 13.7057 12.0078C14.1041 11.0449 14.0045 8.7207 14.0045 7.625C14.0045 6.5625 14.1041 4.23828 13.7057 3.24219C13.44 2.61133 12.942 2.11328 12.2779 1.84766C11.315 1.44922 8.99082 1.54883 7.89512 1.54883C6.83262 1.54883 4.5084 1.44922 3.5123 1.84766C2.88145 2.08008 2.3834 2.61133 2.11777 3.24219C1.71934 4.23828 1.81895 6.5625 1.81895 7.625C1.81895 8.7207 1.71934 11.0449 2.11777 12.0078Z" fill="#FFB650"/>
</svg>
